<mxfile host="app.diagrams.net" modified="2024-07-10T04:48:22.340Z" agent="Mozilla/5.0 (Windows NT 10.0; Win64; x64) AppleWebKit/537.36 (KHTML, like Gecko) Chrome/126.0.0.0 Safari/537.36" etag="JJXZu5wJSQEfJTEVaIvH" version="24.6.4" type="device">
  <diagram name="Page-1" id="C0R9g-Lt7026OcKnJThM">
    <mxGraphModel dx="1423" dy="534" grid="0" gridSize="10" guides="1" tooltips="1" connect="1" arrows="1" fold="1" page="1" pageScale="1" pageWidth="1100" pageHeight="850" math="0" shadow="0">
      <root>
        <mxCell id="0" />
        <mxCell id="1" parent="0" />
        <mxCell id="7IJ1zC4HfZnnREI6_RMZ-1" value="&lt;div&gt;Customer Visits&lt;/div&gt;Merchant&#39;s&amp;nbsp;&lt;div&gt;eCommerce&amp;nbsp;&lt;span style=&quot;background-color: initial;&quot;&gt;Site&lt;/span&gt;&lt;/div&gt;" style="shape=umlActor;verticalLabelPosition=bottom;verticalAlign=top;html=1;outlineConnect=0;" parent="1" vertex="1">
          <mxGeometry x="100" y="412" width="30" height="60" as="geometry" />
        </mxCell>
        <mxCell id="7IJ1zC4HfZnnREI6_RMZ-9" value="Merchant&amp;nbsp;&lt;div&gt;Onboarding&lt;/div&gt;" style="rounded=1;whiteSpace=wrap;html=1;" parent="1" vertex="1">
          <mxGeometry x="370" y="232" width="120" height="60" as="geometry" />
        </mxCell>
        <mxCell id="NjkXC4CQho1FRiBLRvYd-1" value="Merchant&amp;nbsp;&lt;div&gt;Onboarding&lt;/div&gt;" style="rounded=1;whiteSpace=wrap;html=1;" vertex="1" parent="1">
          <mxGeometry x="415" y="272" width="120" height="60" as="geometry" />
        </mxCell>
        <mxCell id="NjkXC4CQho1FRiBLRvYd-3" value="ELB&lt;div&gt;&lt;br&gt;&lt;/div&gt;" style="outlineConnect=0;dashed=0;verticalLabelPosition=bottom;verticalAlign=top;align=center;html=1;shape=mxgraph.aws3.elastic_load_balancing;fillColor=#F58534;gradientColor=none;" vertex="1" parent="1">
          <mxGeometry x="210" y="412.5" width="40" height="53" as="geometry" />
        </mxCell>
        <mxCell id="NjkXC4CQho1FRiBLRvYd-5" value="" style="endArrow=classic;html=1;rounded=0;exitX=1;exitY=0.21;exitDx=0;exitDy=0;exitPerimeter=0;entryX=0;entryY=0.75;entryDx=0;entryDy=0;" edge="1" parent="1" target="7IJ1zC4HfZnnREI6_RMZ-9">
          <mxGeometry width="50" height="50" relative="1" as="geometry">
            <mxPoint x="250" y="417.13" as="sourcePoint" />
            <mxPoint x="700" y="322" as="targetPoint" />
          </mxGeometry>
        </mxCell>
        <mxCell id="NjkXC4CQho1FRiBLRvYd-6" value="Transaction&lt;div&gt;(Core Payments)&lt;/div&gt;" style="rounded=1;whiteSpace=wrap;html=1;" vertex="1" parent="1">
          <mxGeometry x="364" y="343" width="120" height="60" as="geometry" />
        </mxCell>
        <mxCell id="NjkXC4CQho1FRiBLRvYd-7" value="Transaction&amp;nbsp;&lt;div&gt;(Core Payments)&lt;/div&gt;" style="rounded=1;whiteSpace=wrap;html=1;" vertex="1" parent="1">
          <mxGeometry x="394" y="385.75" width="120" height="60" as="geometry" />
        </mxCell>
        <mxCell id="NjkXC4CQho1FRiBLRvYd-10" value="Refunds &amp;amp; Settlements" style="rounded=1;whiteSpace=wrap;html=1;" vertex="1" parent="1">
          <mxGeometry x="361" y="459" width="120" height="60" as="geometry" />
        </mxCell>
        <mxCell id="NjkXC4CQho1FRiBLRvYd-11" value="Refunds &amp;amp; Settlements" style="rounded=1;whiteSpace=wrap;html=1;" vertex="1" parent="1">
          <mxGeometry x="406" y="499" width="120" height="60" as="geometry" />
        </mxCell>
        <mxCell id="NjkXC4CQho1FRiBLRvYd-12" value="Other&amp;nbsp;&lt;div&gt;Functionalities&lt;/div&gt;" style="rounded=1;whiteSpace=wrap;html=1;" vertex="1" parent="1">
          <mxGeometry x="374" y="571" width="120" height="60" as="geometry" />
        </mxCell>
        <mxCell id="NjkXC4CQho1FRiBLRvYd-13" value="Other&amp;nbsp;&lt;div&gt;Functionalities&lt;/div&gt;" style="rounded=1;whiteSpace=wrap;html=1;" vertex="1" parent="1">
          <mxGeometry x="419" y="611" width="120" height="60" as="geometry" />
        </mxCell>
        <mxCell id="NjkXC4CQho1FRiBLRvYd-17" value="" style="endArrow=classic;html=1;rounded=0;entryX=0;entryY=0.5;entryDx=0;entryDy=0;" edge="1" parent="1" target="NjkXC4CQho1FRiBLRvYd-6">
          <mxGeometry width="50" height="50" relative="1" as="geometry">
            <mxPoint x="250" y="423.61940298507454" as="sourcePoint" />
            <mxPoint x="380" y="338" as="targetPoint" />
          </mxGeometry>
        </mxCell>
        <mxCell id="NjkXC4CQho1FRiBLRvYd-18" value="" style="endArrow=classic;html=1;rounded=0;entryX=0.022;entryY=0.633;entryDx=0;entryDy=0;entryPerimeter=0;exitX=1;exitY=0.79;exitDx=0;exitDy=0;exitPerimeter=0;" edge="1" parent="1" target="NjkXC4CQho1FRiBLRvYd-10">
          <mxGeometry width="50" height="50" relative="1" as="geometry">
            <mxPoint x="250" y="447.87" as="sourcePoint" />
            <mxPoint x="380" y="405" as="targetPoint" />
          </mxGeometry>
        </mxCell>
        <mxCell id="NjkXC4CQho1FRiBLRvYd-19" value="" style="endArrow=classic;html=1;rounded=0;entryX=0;entryY=0.5;entryDx=0;entryDy=0;exitX=1;exitY=0.79;exitDx=0;exitDy=0;exitPerimeter=0;" edge="1" parent="1" target="NjkXC4CQho1FRiBLRvYd-12">
          <mxGeometry width="50" height="50" relative="1" as="geometry">
            <mxPoint x="250" y="447.87" as="sourcePoint" />
            <mxPoint x="363" y="588.5" as="targetPoint" />
          </mxGeometry>
        </mxCell>
        <mxCell id="NjkXC4CQho1FRiBLRvYd-22" value="&lt;div style=&quot;text-align: justify;&quot;&gt;&lt;br&gt;&lt;/div&gt;" style="rounded=1;whiteSpace=wrap;html=1;strokeColor=#1C1C1C;fillColor=none;shadow=1;arcSize=14;" vertex="1" parent="1">
          <mxGeometry x="320" y="212" width="250" height="469" as="geometry" />
        </mxCell>
        <mxCell id="NjkXC4CQho1FRiBLRvYd-20" value="&lt;b&gt;API Server&lt;/b&gt;&lt;div&gt;&lt;b&gt;(PgBiz)&lt;/b&gt;&lt;/div&gt;" style="rounded=1;whiteSpace=wrap;html=1;" vertex="1" parent="1">
          <mxGeometry x="650" y="411" width="120" height="60" as="geometry" />
        </mxCell>
        <mxCell id="NjkXC4CQho1FRiBLRvYd-21" value="REW OLTB Replica" style="outlineConnect=0;dashed=0;verticalLabelPosition=bottom;verticalAlign=top;align=center;html=1;shape=mxgraph.aws3.ms_sql_instance;fillColor=#2E73B8;gradientColor=none;" vertex="1" parent="1">
          <mxGeometry x="840" y="281.5" width="80" height="78.5" as="geometry" />
        </mxCell>
        <mxCell id="NjkXC4CQho1FRiBLRvYd-24" value="&lt;div&gt;&lt;b&gt;Application Server&lt;/b&gt;&lt;/div&gt;(PgMRM)" style="text;html=1;align=center;verticalAlign=middle;whiteSpace=wrap;rounded=0;" vertex="1" parent="1">
          <mxGeometry x="382" y="182" width="130" height="20" as="geometry" />
        </mxCell>
        <mxCell id="NjkXC4CQho1FRiBLRvYd-28" value="" style="endArrow=classic;startArrow=classic;html=1;rounded=0;exitX=1;exitY=0.5;exitDx=0;exitDy=0;entryX=0;entryY=0.5;entryDx=0;entryDy=0;entryPerimeter=0;" edge="1" parent="1" source="NjkXC4CQho1FRiBLRvYd-20" target="NjkXC4CQho1FRiBLRvYd-21">
          <mxGeometry width="50" height="50" relative="1" as="geometry">
            <mxPoint x="830" y="410" as="sourcePoint" />
            <mxPoint x="880" y="360" as="targetPoint" />
          </mxGeometry>
        </mxCell>
        <mxCell id="NjkXC4CQho1FRiBLRvYd-29" value="" style="endArrow=classic;startArrow=classic;html=1;rounded=0;exitX=1;exitY=0.5;exitDx=0;exitDy=0;entryX=0;entryY=0.5;entryDx=0;entryDy=0;" edge="1" parent="1" source="NjkXC4CQho1FRiBLRvYd-1" target="NjkXC4CQho1FRiBLRvYd-20">
          <mxGeometry width="50" height="50" relative="1" as="geometry">
            <mxPoint x="650" y="292" as="sourcePoint" />
            <mxPoint x="650" y="512" as="targetPoint" />
          </mxGeometry>
        </mxCell>
        <mxCell id="NjkXC4CQho1FRiBLRvYd-30" value="" style="endArrow=classic;startArrow=classic;html=1;rounded=0;entryX=0;entryY=0.5;entryDx=0;entryDy=0;" edge="1" parent="1" source="NjkXC4CQho1FRiBLRvYd-7" target="NjkXC4CQho1FRiBLRvYd-20">
          <mxGeometry width="50" height="50" relative="1" as="geometry">
            <mxPoint x="570" y="469" as="sourcePoint" />
            <mxPoint x="650" y="512" as="targetPoint" />
          </mxGeometry>
        </mxCell>
        <mxCell id="NjkXC4CQho1FRiBLRvYd-32" value="" style="endArrow=classic;startArrow=classic;html=1;rounded=0;exitX=1;exitY=0.25;exitDx=0;exitDy=0;entryX=0;entryY=0.5;entryDx=0;entryDy=0;" edge="1" parent="1" source="NjkXC4CQho1FRiBLRvYd-11" target="NjkXC4CQho1FRiBLRvYd-20">
          <mxGeometry width="50" height="50" relative="1" as="geometry">
            <mxPoint x="535" y="576.5" as="sourcePoint" />
            <mxPoint x="650" y="512" as="targetPoint" />
          </mxGeometry>
        </mxCell>
        <mxCell id="NjkXC4CQho1FRiBLRvYd-34" value="" style="endArrow=classic;startArrow=classic;html=1;rounded=0;exitX=1;exitY=0.5;exitDx=0;exitDy=0;entryX=0;entryY=0.5;entryDx=0;entryDy=0;" edge="1" parent="1" source="NjkXC4CQho1FRiBLRvYd-13" target="NjkXC4CQho1FRiBLRvYd-20">
          <mxGeometry width="50" height="50" relative="1" as="geometry">
            <mxPoint x="560" y="712" as="sourcePoint" />
            <mxPoint x="650" y="512" as="targetPoint" />
          </mxGeometry>
        </mxCell>
        <mxCell id="NjkXC4CQho1FRiBLRvYd-35" value="REW OLTB" style="outlineConnect=0;dashed=0;verticalLabelPosition=bottom;verticalAlign=top;align=center;html=1;shape=mxgraph.aws3.ms_sql_instance;fillColor=#2E73B8;gradientColor=none;" vertex="1" parent="1">
          <mxGeometry x="840" y="387" width="80" height="78.5" as="geometry" />
        </mxCell>
        <mxCell id="NjkXC4CQho1FRiBLRvYd-40" value="REW OLTB Warehouse" style="outlineConnect=0;dashed=0;verticalLabelPosition=bottom;verticalAlign=top;align=center;html=1;shape=mxgraph.aws3.ms_sql_instance;fillColor=#2E73B8;gradientColor=none;" vertex="1" parent="1">
          <mxGeometry x="840" y="499" width="80" height="78.5" as="geometry" />
        </mxCell>
        <mxCell id="NjkXC4CQho1FRiBLRvYd-46" value="" style="endArrow=classic;startArrow=classic;html=1;rounded=0;exitX=0.5;exitY=0.5;exitDx=0;exitDy=0;exitPerimeter=0;" edge="1" parent="1" source="7IJ1zC4HfZnnREI6_RMZ-1" target="NjkXC4CQho1FRiBLRvYd-3">
          <mxGeometry width="50" height="50" relative="1" as="geometry">
            <mxPoint x="100" y="430" as="sourcePoint" />
            <mxPoint x="190" y="375" as="targetPoint" />
          </mxGeometry>
        </mxCell>
        <mxCell id="NjkXC4CQho1FRiBLRvYd-49" value="" style="endArrow=classic;startArrow=classic;html=1;rounded=0;entryX=0;entryY=0.5;entryDx=0;entryDy=0;entryPerimeter=0;exitX=1;exitY=0.5;exitDx=0;exitDy=0;" edge="1" parent="1" source="NjkXC4CQho1FRiBLRvYd-20" target="NjkXC4CQho1FRiBLRvYd-40">
          <mxGeometry width="50" height="50" relative="1" as="geometry">
            <mxPoint x="780" y="530" as="sourcePoint" />
            <mxPoint x="790" y="660" as="targetPoint" />
          </mxGeometry>
        </mxCell>
        <mxCell id="NjkXC4CQho1FRiBLRvYd-50" value="" style="endArrow=classic;startArrow=classic;html=1;rounded=0;exitX=1;exitY=0.5;exitDx=0;exitDy=0;entryX=0;entryY=0.5;entryDx=0;entryDy=0;entryPerimeter=0;" edge="1" parent="1" source="NjkXC4CQho1FRiBLRvYd-20" target="NjkXC4CQho1FRiBLRvYd-35">
          <mxGeometry width="50" height="50" relative="1" as="geometry">
            <mxPoint x="780" y="430" as="sourcePoint" />
            <mxPoint x="870" y="361" as="targetPoint" />
          </mxGeometry>
        </mxCell>
        <mxCell id="NjkXC4CQho1FRiBLRvYd-51" value="&lt;div style=&quot;text-align: justify;&quot;&gt;&lt;br&gt;&lt;/div&gt;" style="rounded=1;whiteSpace=wrap;html=1;strokeColor=#1C1C1C;fillColor=none;shadow=1;arcSize=14;" vertex="1" parent="1">
          <mxGeometry x="810" y="260" width="150" height="360" as="geometry" />
        </mxCell>
        <mxCell id="NjkXC4CQho1FRiBLRvYd-52" value="&lt;b&gt;AWS RDS&lt;/b&gt;" style="text;html=1;align=center;verticalAlign=middle;whiteSpace=wrap;rounded=0;" vertex="1" parent="1">
          <mxGeometry x="855" y="233.5" width="60" height="20" as="geometry" />
        </mxCell>
      </root>
    </mxGraphModel>
  </diagram>
</mxfile>
